<mxfile host="65bd71144e">
    <diagram id="jOBOnneXbItxPIo4X_Gl" name="Page-1">
        <mxGraphModel dx="1216" dy="483" grid="1" gridSize="10" guides="1" tooltips="1" connect="1" arrows="1" fold="1" page="1" pageScale="1" pageWidth="850" pageHeight="1100" math="0" shadow="0">
            <root>
                <mxCell id="0"/>
                <mxCell id="1" parent="0"/>
                <mxCell id="4" value="Side-mounted Display PCB" style="rounded=0;whiteSpace=wrap;html=1;align=left;verticalAlign=top;fontStyle=1;fontSize=12;" parent="1" vertex="1">
                    <mxGeometry y="130" width="530" height="180" as="geometry"/>
                </mxCell>
                <mxCell id="2" value="MediaCow Touch 2 &quot;Paris&quot; - CTCL 2021-2025&lt;br&gt;Description: Connections between SMD board and carrier board&lt;br&gt;Created:&amp;nbsp;January 28, 2025&lt;br&gt;Modified: February 18, 2025" style="text;html=1;strokeColor=none;fillColor=none;align=left;verticalAlign=top;whiteSpace=wrap;rounded=0;" parent="1" vertex="1">
                    <mxGeometry width="260" height="100" as="geometry"/>
                </mxCell>
                <mxCell id="3" value="Carrier PCB" style="rounded=0;whiteSpace=wrap;html=1;align=left;verticalAlign=top;fontStyle=1;fontSize=12;" parent="1" vertex="1">
                    <mxGeometry y="370" width="530" height="360" as="geometry"/>
                </mxCell>
                <mxCell id="5" value="Display" style="rounded=0;whiteSpace=wrap;html=1;align=center;verticalAlign=middle;fontStyle=1;fontSize=24;" parent="1" vertex="1">
                    <mxGeometry x="10" y="160" width="320" height="120" as="geometry"/>
                </mxCell>
                <mxCell id="24" style="edgeStyle=none;html=1;exitX=0;exitY=0.5;exitDx=0;exitDy=0;entryX=1;entryY=0.25;entryDx=0;entryDy=0;" parent="1" source="9" target="5" edge="1">
                    <mxGeometry relative="1" as="geometry"/>
                </mxCell>
                <mxCell id="9" value="RGB-MIPI&lt;br style=&quot;font-size: 12px;&quot;&gt;Bridge" style="rounded=0;whiteSpace=wrap;html=1;fontSize=12;" parent="1" vertex="1">
                    <mxGeometry x="400" y="160" width="60" height="60" as="geometry"/>
                </mxCell>
                <mxCell id="12" style="edgeStyle=orthogonalEdgeStyle;html=1;exitX=0.5;exitY=0;exitDx=0;exitDy=0;entryX=0.5;entryY=1;entryDx=0;entryDy=0;fontSize=12;" parent="1" source="11" target="9" edge="1">
                    <mxGeometry relative="1" as="geometry"/>
                </mxCell>
                <mxCell id="27" style="edgeStyle=orthogonalEdgeStyle;html=1;exitX=0.25;exitY=0;exitDx=0;exitDy=0;entryX=1;entryY=0.75;entryDx=0;entryDy=0;startArrow=classic;startFill=1;" edge="1" parent="1" source="11" target="5">
                    <mxGeometry relative="1" as="geometry"/>
                </mxCell>
                <mxCell id="11" value="SP7021&lt;br&gt;SMEC" style="rounded=0;whiteSpace=wrap;html=1;fontSize=12;" parent="1" vertex="1">
                    <mxGeometry x="390" y="440" width="80" height="80" as="geometry"/>
                </mxCell>
                <mxCell id="20" value="MIPI DSI" style="text;html=1;strokeColor=none;fillColor=none;align=center;verticalAlign=middle;whiteSpace=wrap;rounded=0;fontSize=12;" parent="1" vertex="1">
                    <mxGeometry x="340" y="160" width="60" height="30" as="geometry"/>
                </mxCell>
                <mxCell id="22" value="QSPI" style="text;html=1;strokeColor=none;fillColor=none;align=center;verticalAlign=middle;whiteSpace=wrap;rounded=0;fontSize=12;" parent="1" vertex="1">
                    <mxGeometry x="350" y="330" width="60" height="30" as="geometry"/>
                </mxCell>
                <mxCell id="25" value="RGB" style="text;html=1;strokeColor=none;fillColor=none;align=center;verticalAlign=middle;whiteSpace=wrap;rounded=0;fontSize=12;" parent="1" vertex="1">
                    <mxGeometry x="430" y="330" width="60" height="30" as="geometry"/>
                </mxCell>
                <mxCell id="30" style="edgeStyle=orthogonalEdgeStyle;html=1;exitX=1;exitY=0.5;exitDx=0;exitDy=0;entryX=0.5;entryY=1;entryDx=0;entryDy=0;startArrow=classic;startFill=1;" edge="1" parent="1" source="28" target="11">
                    <mxGeometry relative="1" as="geometry"/>
                </mxCell>
                <mxCell id="28" value="LattePanda Mu&lt;br&gt;System" style="rounded=0;whiteSpace=wrap;html=1;fontSize=12;" vertex="1" parent="1">
                    <mxGeometry x="30" y="440" width="300" height="240" as="geometry"/>
                </mxCell>
                <mxCell id="31" value="USB + I2C" style="text;html=1;strokeColor=none;fillColor=none;align=center;verticalAlign=middle;whiteSpace=wrap;rounded=0;fontSize=12;" vertex="1" parent="1">
                    <mxGeometry x="350" y="530" width="60" height="30" as="geometry"/>
                </mxCell>
            </root>
        </mxGraphModel>
    </diagram>
</mxfile>